<?xml version="1.0" standalone="no"?>
<!DOCTYPE svg PUBLIC "-//W3C//DTD SVG 20010904//EN"
 "http://www.w3.org/TR/2001/REC-SVG-20010904/DTD/svg10.dtd">
<svg version="1.0" xmlns="http://www.w3.org/2000/svg"
 width="500.000000pt" height="500.000000pt" viewBox="0 0 500.000000 500.000000"
 preserveAspectRatio="xMidYMid meet">

<g transform="translate(0.000000,500.000000) scale(0.100000,-0.100000)"
fill="#000000" stroke="none">
<path d="M2020 4480 c-19 -4 -71 -15 -114 -25 -86 -19 -117 -32 -246 -108
-118 -70 -143 -90 -199 -162 -114 -145 -131 -207 -131 -485 0 -246 2 -257 93
-438 39 -80 53 -100 58 -85 5 12 8 6 8 -20 1 -21 8 -52 17 -69 18 -35 17 -31
68 -202 19 -65 42 -126 50 -135 8 -9 15 -45 18 -86 3 -53 12 -88 37 -142 19
-40 34 -83 35 -95 0 -13 7 -23 13 -23 7 0 33 -38 57 -86 56 -110 183 -288 245
-343 31 -28 26 -41 -29 -75 -68 -42 -191 -134 -215 -161 -11 -12 -49 -41 -85
-64 -36 -24 -96 -70 -135 -104 -38 -34 -104 -79 -145 -100 -42 -21 -108 -62
-147 -91 -135 -98 -202 -196 -233 -339 -10 -50 -32 -117 -49 -149 -39 -78 -58
-150 -65 -248 -4 -44 -17 -170 -31 -280 -13 -110 -26 -237 -30 -283 l-6 -82
2070 0 2071 0 0 974 0 974 -115 22 c-63 12 -183 44 -267 71 -131 43 -301 92
-548 160 -36 10 -84 18 -108 18 -86 2 -297 42 -352 68 -32 15 -107 34 -180 47
l-125 21 -19 40 c-26 56 -66 219 -66 271 0 41 1 43 32 46 87 8 133 216 94 420
-27 140 -64 210 -128 242 -24 12 -35 62 -68 311 -10 75 -38 161 -74 230 -9 17
-16 36 -16 44 0 8 -11 29 -25 47 -14 18 -25 37 -25 42 0 6 -16 30 -35 54 -19
23 -45 56 -57 72 -39 49 -108 110 -146 128 -19 10 -42 24 -51 32 -43 38 -181
97 -261 112 -47 8 -118 22 -159 30 -77 15 -222 17 -281 4z m1270 -1680 c0 -5
-7 -10 -15 -10 -8 0 -15 5 -15 10 0 6 7 10 15 10 8 0 15 -4 15 -10z m-10 -24
c0 -3 -4 -8 -10 -11 -5 -3 -10 -1 -10 4 0 6 5 11 10 11 6 0 10 -2 10 -4z"/>
<path d="M1611 2654 c0 -11 3 -14 6 -6 3 7 2 16 -1 19 -3 4 -6 -2 -5 -13z"/>
<path d="M1660 2511 c0 -5 5 -13 10 -16 6 -3 10 -2 10 4 0 5 -4 13 -10 16 -5
3 -10 2 -10 -4z"/>
</g>
</svg>
